<svg xmlns="http://www.w3.org/2000/svg" xmlns:xlink="http://www.w3.org/1999/xlink" version="1.1" width="1000" height="1000" viewBox="0 0 1000 1000" xml:space="preserve">
<desc>Created with Fabric.js 3.5.0</desc>
<defs>
</defs>
<rect x="0" y="0" width="100%" height="100%" fill="rgba(255,255,255,0)"/>
<g transform="matrix(1 0 0 1 278 241.5)" id="139571">
<g style="" vector-effect="non-scaling-stroke">
		<g transform="matrix(1 0 0 1 -110.9535 221.4825)" id="Vector" clip-path="url(#CLIPPATH_145)">
<clipPath id="CLIPPATH_145">
	<rect transform="matrix(1 0 0 1 110.9535 -221.4825)" id="clip0" x="-278" y="-241.5" rx="0" ry="0" width="556" height="483"/>
</clipPath>
<path style="stroke: none; stroke-width: 1; stroke-dasharray: none; stroke-linecap: butt; stroke-dashoffset: 0; stroke-linejoin: miter; stroke-miterlimit: 4; is-custom-font: none; font-file-url: none; fill: rgb(235,239,247); fill-rule: nonzero; opacity: 1;" transform=" translate(-167.0465, -462.9825)" d="M 196.758 446.747 L 133.404 459.122 C 129.127 459.958 126.338 464.099 127.174 468.373 L 128.077 472.992 C 128.913 477.266 133.058 480.053 137.334 479.218 L 200.689 466.843 C 204.966 466.007 207.755 461.866 206.919 457.592 L 206.015 452.973 C 205.179 448.699 201.035 445.912 196.758 446.747 Z" stroke-linecap="round"/>
</g>
		<g transform="matrix(1 0 0 1 -110.9595 221.4913)" id="Vector_2" clip-path="url(#CLIPPATH_146)">
<clipPath id="CLIPPATH_146">
	<rect transform="matrix(1 0 0 1 110.9594 -221.4913)" id="clip0" x="-278" y="-241.5" rx="0" ry="0" width="556" height="483"/>
</clipPath>
<path style="stroke: none; stroke-width: 1; stroke-dasharray: none; stroke-linecap: butt; stroke-dashoffset: 0; stroke-linejoin: miter; stroke-miterlimit: 4; is-custom-font: none; font-file-url: none; fill: rgb(81,88,98); fill-rule: nonzero; opacity: 1;" transform=" translate(-167.0406, -462.9913)" d="M 135.808 483.001 C 133.135 482.996 130.546 482.064 128.484 480.365 C 126.421 478.667 125.011 476.306 124.494 473.685 L 123.596 469.076 C 123.018 466.078 123.652 462.974 125.358 460.442 C 127.064 457.91 129.704 456.155 132.7 455.563 L 196.064 443.19 C 199.064 442.613 202.17 443.245 204.704 444.95 C 207.238 446.655 208.994 449.293 209.587 452.288 L 210.485 456.897 C 211.063 459.895 210.43 462.999 208.723 465.531 C 207.017 468.063 204.378 469.818 201.381 470.41 L 138.017 482.783 C 137.289 482.927 136.549 483 135.808 483.001 Z M 198.273 450.25 C 198.007 450.225 197.739 450.225 197.472 450.25 L 134.108 462.623 C 133.005 462.84 132.033 463.485 131.405 464.417 C 130.777 465.35 130.544 466.493 130.758 467.596 L 131.656 472.205 C 131.879 473.305 132.527 474.273 133.458 474.899 C 134.389 475.526 135.53 475.761 136.633 475.553 L 199.997 463.181 C 201.1 462.964 202.073 462.318 202.701 461.386 C 203.329 460.454 203.561 459.311 203.347 458.207 L 202.449 453.598 C 202.253 452.634 201.731 451.768 200.97 451.145 C 200.21 450.522 199.257 450.18 198.273 450.177 V 450.25 Z" stroke-linecap="round"/>
</g>
		<g transform="matrix(1 0 0 1 150.4452 -62.9965)" id="Vector_3" clip-path="url(#CLIPPATH_147)">
<clipPath id="CLIPPATH_147">
	<rect transform="matrix(1 0 0 1 -150.4452 62.9965)" id="clip0" x="-278" y="-241.5" rx="0" ry="0" width="556" height="483"/>
</clipPath>
<path style="stroke: none; stroke-width: 1; stroke-dasharray: none; stroke-linecap: butt; stroke-dashoffset: 0; stroke-linejoin: miter; stroke-miterlimit: 4; is-custom-font: none; font-file-url: none; fill: rgb(222,95,97); fill-rule: nonzero; opacity: 1;" transform=" translate(-428.4452, -178.5035)" d="M 438.719 231.028 C 467.748 225.358 486.681 197.245 481.006 168.237 C 475.332 139.228 447.2 120.309 418.171 125.979 C 389.143 131.649 370.21 159.762 375.884 188.77 C 381.558 217.779 409.691 236.698 438.719 231.028 Z" stroke-linecap="round"/>
</g>
		<g transform="matrix(1 0 0 1 130.0025 -52.5995)" id="Vector_4" clip-path="url(#CLIPPATH_148)">
<clipPath id="CLIPPATH_148">
	<rect transform="matrix(1 0 0 1 -130.0025 52.5995)" id="clip0" x="-278" y="-241.5" rx="0" ry="0" width="556" height="483"/>
</clipPath>
<path style="stroke: none; stroke-width: 1; stroke-dasharray: none; stroke-linecap: butt; stroke-dashoffset: 0; stroke-linejoin: miter; stroke-miterlimit: 4; is-custom-font: none; font-file-url: none; fill: rgb(238,159,164); fill-rule: nonzero; opacity: 1;" transform=" translate(-408.0025, -188.9005)" d="M 418.277 241.425 C 447.305 235.754 466.238 207.642 460.564 178.633 C 454.89 149.625 426.757 130.706 397.729 136.376 C 368.7 142.046 349.767 170.159 355.441 199.167 C 361.116 228.175 389.248 247.095 418.277 241.425 Z" stroke-linecap="round"/>
</g>
		<g transform="matrix(1 0 0 1 -141.4168 123.0356)" id="Vector_5" clip-path="url(#CLIPPATH_149)">
<clipPath id="CLIPPATH_149">
	<rect transform="matrix(1 0 0 1 141.4168 -123.0356)" id="clip0" x="-278" y="-241.5" rx="0" ry="0" width="556" height="483"/>
</clipPath>
<path style="stroke: none; stroke-width: 1; stroke-dasharray: none; stroke-linecap: butt; stroke-dashoffset: 0; stroke-linejoin: miter; stroke-miterlimit: 4; is-custom-font: none; font-file-url: none; fill: rgb(222,95,97); fill-rule: nonzero; opacity: 1;" transform=" translate(-136.5832, -364.5356)" d="M 151.199 447.629 L 173.899 443.189 C 177.517 442.485 180.938 441.002 183.924 438.842 C 186.91 436.683 189.389 433.899 191.189 430.685 C 192.989 427.471 194.067 423.903 194.347 420.231 C 194.627 416.558 194.103 412.868 192.811 409.419 L 183.391 384.261 C 179.131 372.849 177.248 360.688 177.858 348.523 C 178.467 336.359 181.556 324.447 186.936 313.517 L 191.33 304.565 C 192.676 301.827 193.231 298.767 192.93 295.73 C 192.629 292.694 191.485 289.802 189.627 287.38 C 187.769 284.958 185.272 283.104 182.415 282.025 C 179.559 280.946 176.458 280.687 173.462 281.275 L 98.202 295.953 C 94.7125 296.635 91.4175 298.082 88.5538 300.188 C 85.69 302.294 83.3285 305.008 81.6389 308.135 C 79.9492 311.261 78.9733 314.723 78.7813 318.271 C 78.5892 321.819 79.1857 325.365 80.528 328.656 L 122.819 432.32 C 125.04 437.765 129.085 442.268 134.262 445.061 C 139.439 447.853 145.426 448.761 151.199 447.629 Z" stroke-linecap="round"/>
</g>
		<g transform="matrix(1 0 0 1 -120.2009 156.8868)" id="Vector_6" clip-path="url(#CLIPPATH_150)">
<clipPath id="CLIPPATH_150">
	<rect transform="matrix(1 0 0 1 120.2009 -156.8868)" id="clip0" x="-278" y="-241.5" rx="0" ry="0" width="556" height="483"/>
</clipPath>
<path style="stroke: none; stroke-width: 1; stroke-dasharray: none; stroke-linecap: butt; stroke-dashoffset: 0; stroke-linejoin: miter; stroke-miterlimit: 4; is-custom-font: none; font-file-url: none; fill: rgb(238,159,164); fill-rule: nonzero; opacity: 1;" transform=" translate(-157.7991, -398.3868)" d="M 173.292 440.108 L 150.519 444.524 C 144.75 445.655 138.766 444.746 133.593 441.954 C 128.42 439.161 124.379 434.658 122.163 429.215 L 121.751 428.197 C 127.608 429.987 133.84 430.163 139.789 428.706 C 145.949 427.085 151.545 423.804 155.967 419.222 C 160.39 414.641 163.468 408.933 164.867 402.723 C 167.635 389.744 162.804 375.527 168.048 363.349 C 170.159 358.827 173.302 354.864 177.224 351.776 C 177.394 361.858 179.291 371.836 182.833 381.277 L 192.276 406.411 C 193.551 409.862 194.059 413.548 193.767 417.215 C 193.474 420.882 192.387 424.441 190.581 427.646 C 188.775 430.852 186.294 433.626 183.308 435.778 C 180.323 437.93 176.905 439.408 173.292 440.108 Z" stroke-linecap="round"/>
</g>
		<g transform="matrix(1 0 0 1 -141.3837 70.8015)" id="Vector_7" clip-path="url(#CLIPPATH_151)">
<clipPath id="CLIPPATH_151">
	<rect transform="matrix(1 0 0 1 141.3836 -70.8016)" id="clip0" x="-278" y="-241.5" rx="0" ry="0" width="556" height="483"/>
</clipPath>
<path style="stroke: none; stroke-width: 1; stroke-dasharray: none; stroke-linecap: butt; stroke-dashoffset: 0; stroke-linejoin: miter; stroke-miterlimit: 4; is-custom-font: none; font-file-url: none; fill: rgb(176,83,92); fill-rule: nonzero; opacity: 1;" transform=" translate(-136.6164, -312.3016)" d="M 185.479 315.799 L 84.558 335.523 C 82.3244 322.932 74.6042 311.505 87.7626 308.837 L 187.3 289.283 C 199.511 287.002 188.635 304.47 185.479 315.799 Z" stroke-linecap="round"/>
</g>
		<g transform="matrix(1 0 0 1 -241.6243 8.7955)" id="Vector_8" clip-path="url(#CLIPPATH_152)">
<clipPath id="CLIPPATH_152">
	<rect transform="matrix(1 0 0 1 241.6242 -8.7955)" id="clip0" x="-278" y="-241.5" rx="0" ry="0" width="556" height="483"/>
</clipPath>
<path style="stroke: none; stroke-width: 1; stroke-dasharray: none; stroke-linecap: butt; stroke-dashoffset: 0; stroke-linejoin: miter; stroke-miterlimit: 4; is-custom-font: none; font-file-url: none; fill: rgb(222,95,97); fill-rule: nonzero; opacity: 1;" transform=" translate(-36.3758, -250.2955)" d="M 33.6389 204.308 L 21.5827 206.663 C 10.3975 208.848 3.10257 219.68 5.2889 230.857 L 14.9015 280.001 C 17.0879 291.178 27.9276 298.468 39.1127 296.283 L 51.1689 293.928 C 62.354 291.744 69.649 280.911 67.4627 269.734 L 57.85 220.591 C 55.6637 209.413 44.824 202.123 33.6389 204.308 Z" stroke-linecap="round"/>
</g>
		<g transform="matrix(1 0 0 1 -248.8954 13.1621)" id="Vector_9" clip-path="url(#CLIPPATH_153)">
<clipPath id="CLIPPATH_153">
	<rect transform="matrix(1 0 0 1 248.8953 -13.1621)" id="clip0" x="-278" y="-241.5" rx="0" ry="0" width="556" height="483"/>
</clipPath>
<path style="stroke: none; stroke-width: 1; stroke-dasharray: none; stroke-linecap: butt; stroke-dashoffset: 0; stroke-linejoin: miter; stroke-miterlimit: 4; is-custom-font: none; font-file-url: none; fill: rgb(238,159,164); fill-rule: nonzero; opacity: 1;" transform=" translate(-29.1047, -254.6621)" d="M 53.993 299.35 C 52.5096 299.91 50.9832 300.348 49.4289 300.66 L 46.3457 301.267 C 39.3778 302.608 32.1623 301.137 26.2758 297.178 C 20.3893 293.219 16.3105 287.092 14.9308 280.136 L 4.63716 235.109 C 1.79671 220.771 13.7412 211.406 28.2105 208.641 L 31.2937 208.034 C 32.8544 207.737 34.439 207.583 36.0278 207.573 C 30.1775 209.828 25.3077 214.068 22.2717 219.55 C 19.2356 225.033 18.2268 231.408 19.4221 237.559 L 27.2879 277.734 C 28.5123 283.887 31.8532 289.417 36.7311 293.365 C 41.609 297.314 47.7162 299.431 53.993 299.35 Z" stroke-linecap="round"/>
</g>
		<g transform="matrix(1 0 0 1 -142.076 119.952)" id="Vector_10" clip-path="url(#CLIPPATH_154)">
<clipPath id="CLIPPATH_154">
	<rect transform="matrix(1 0 0 1 142.0759 -119.952)" id="clip0" x="-278" y="-241.5" rx="0" ry="0" width="556" height="483"/>
</clipPath>
<path style="stroke: none; stroke-width: 1; stroke-dasharray: none; stroke-linecap: butt; stroke-dashoffset: 0; stroke-linejoin: miter; stroke-miterlimit: 4; is-custom-font: none; font-file-url: none; fill: rgb(81,88,98); fill-rule: nonzero; opacity: 1;" transform=" translate(-135.9241, -361.452)" d="M 145.664 448.649 C 139.929 448.601 134.335 446.863 129.585 443.652 C 124.834 440.441 121.138 435.9 118.959 430.599 L 76.4976 326.959 C 74.9515 323.171 74.2641 319.087 74.4847 315.002 C 74.7054 310.917 75.8285 306.932 77.7735 303.332 C 79.7185 299.733 82.4371 296.608 85.7341 294.183 C 89.031 291.758 92.8245 290.092 96.842 289.306 L 172.102 274.629 C 175.767 273.905 179.561 274.22 183.056 275.538 C 186.551 276.856 189.608 279.124 191.881 282.087 C 194.154 285.049 195.552 288.588 195.918 292.303 C 196.284 296.019 195.603 299.762 193.951 303.111 L 189.557 312.063 C 184.419 322.567 181.474 334.007 180.902 345.685 C 180.33 357.364 182.144 369.036 186.231 379.992 L 195.602 405.15 C 197.059 409.095 197.643 413.308 197.315 417.5 C 196.986 421.692 195.753 425.763 193.7 429.433 C 191.646 433.104 188.822 436.286 185.42 438.761 C 182.019 441.236 178.121 442.946 173.995 443.772 L 151.296 448.212 C 149.437 448.541 147.551 448.687 145.664 448.649 Z M 176.01 281.422 C 175.155 281.421 174.301 281.502 173.461 281.664 L 98.2015 296.342 C 95.24 296.921 92.4436 298.149 90.013 299.936 C 87.5825 301.724 85.5781 304.026 84.1438 306.68 C 82.7095 309.333 81.8808 312.271 81.7173 315.282 C 81.5538 318.293 82.0595 321.303 83.1981 324.096 L 125.538 427.736 C 127.459 432.377 130.923 436.214 135.345 438.6 C 139.768 440.987 144.878 441.776 149.815 440.837 L 172.514 436.397 C 175.597 435.781 178.509 434.507 181.054 432.664 C 183.599 430.82 185.715 428.449 187.26 425.713 C 188.804 422.977 189.739 419.94 190.001 416.81 C 190.264 413.68 189.847 410.53 188.78 407.576 L 179.361 382.418 C 174.939 370.544 172.98 357.897 173.602 345.243 C 174.224 332.59 177.414 320.195 182.978 308.812 L 187.372 299.86 C 188.337 297.92 188.791 295.767 188.692 293.603 C 188.594 291.439 187.946 289.336 186.809 287.491 C 185.673 285.647 184.085 284.122 182.196 283.06 C 180.307 281.998 178.178 281.434 176.01 281.422 Z" stroke-linecap="round"/>
</g>
		<g transform="matrix(1 0 0 1 -242.7858 10.5958)" id="Vector_11" clip-path="url(#CLIPPATH_155)">
<clipPath id="CLIPPATH_155">
	<rect transform="matrix(1 0 0 1 242.7858 -10.5959)" id="clip0" x="-278" y="-241.5" rx="0" ry="0" width="556" height="483"/>
</clipPath>
<path style="stroke: none; stroke-width: 1; stroke-dasharray: none; stroke-linecap: butt; stroke-dashoffset: 0; stroke-linejoin: miter; stroke-miterlimit: 4; is-custom-font: none; font-file-url: none; fill: rgb(81,88,98); fill-rule: nonzero; opacity: 1;" transform=" translate(-35.2142, -252.0959)" d="M 33.9882 302.139 C 28.36 302.137 22.9075 300.181 18.5632 296.605 C 14.2189 293.029 11.2527 288.056 10.1721 282.537 L 0.461178 233.385 C -0.149376 230.258 -0.13761 227.042 0.495804 223.919 C 1.12922 220.797 2.37187 217.83 4.15282 215.187 C 5.93377 212.545 8.21813 210.278 10.8755 208.518 C 13.5328 206.758 16.5111 205.538 19.6403 204.928 L 31.779 202.502 C 34.9081 201.892 38.1269 201.903 41.2515 202.536 C 44.3762 203.169 47.3454 204.411 49.9898 206.191 C 52.6342 207.971 54.9019 210.253 56.6634 212.909 C 58.4249 215.564 59.6458 218.54 60.2563 221.667 L 69.9672 270.795 C 70.5778 273.922 70.566 277.138 69.9326 280.261 C 69.2992 283.383 68.0565 286.35 66.2756 288.993 C 64.4947 291.635 62.2103 293.901 59.5529 295.662 C 56.8956 297.422 53.9173 298.642 50.7881 299.252 L 38.6495 301.678 C 37.1142 301.982 35.5532 302.136 33.9882 302.139 Z M 36.4159 209.392 C 35.3239 209.392 34.2345 209.498 33.1628 209.707 L 21.0241 212.133 C 16.6008 212.996 12.7016 215.579 10.1839 219.314 C 7.66618 223.049 6.73629 227.631 7.59872 232.051 L 17.3097 281.178 C 18.1728 285.598 20.7575 289.495 24.4953 292.011 C 28.2332 294.527 32.818 295.456 37.2414 294.594 L 49.3801 292.168 C 53.8033 291.306 57.7026 288.723 60.2203 284.988 C 62.738 281.252 63.6679 276.671 62.8054 272.25 L 53.0217 223.196 C 52.2843 219.328 50.2249 215.836 47.1958 213.318 C 44.1667 210.8 40.3561 209.412 36.4159 209.392 Z" stroke-linecap="round"/>
</g>
		<g transform="matrix(1 0 0 1 152.2811 -61.7047)" id="Vector_12" clip-path="url(#CLIPPATH_156)">
<clipPath id="CLIPPATH_156">
	<rect transform="matrix(1 0 0 1 -152.2812 61.7048)" id="clip0" x="-278" y="-241.5" rx="0" ry="0" width="556" height="483"/>
</clipPath>
<path style="stroke: none; stroke-width: 1; stroke-dasharray: none; stroke-linecap: butt; stroke-dashoffset: 0; stroke-linejoin: miter; stroke-miterlimit: 4; is-custom-font: none; font-file-url: none; fill: rgb(81,88,98); fill-rule: nonzero; opacity: 1;" transform=" translate(-430.2812, -179.7952)" d="M 430.268 236.953 C 419.426 236.949 408.808 233.866 399.652 228.064 C 390.496 222.261 383.179 213.977 378.554 204.178 C 373.929 194.379 372.187 183.468 373.529 172.717 C 374.872 161.966 379.245 151.817 386.138 143.455 C 393.031 135.092 402.161 128.86 412.463 125.483 C 422.765 122.107 433.816 121.727 444.326 124.386 C 454.836 127.046 464.374 132.636 471.827 140.504 C 479.28 148.373 484.341 158.196 486.421 168.829 C 488.032 177.109 487.791 185.642 485.715 193.817 C 483.639 201.992 479.78 209.608 474.413 216.118 C 469.047 222.628 462.306 227.872 454.675 231.474 C 447.043 235.076 438.708 236.947 430.268 236.953 Z M 430.389 129.867 C 420.097 129.843 410.049 132.997 401.619 138.897 C 393.189 144.798 386.79 153.158 383.296 162.832 C 379.803 172.506 379.386 183.023 382.103 192.944 C 384.819 202.864 390.537 211.703 398.473 218.251 C 406.41 224.8 416.177 228.738 426.439 229.527 C 436.701 230.316 446.956 227.918 455.801 222.659 C 464.647 217.401 471.65 209.54 475.854 200.152 C 480.057 190.764 481.255 180.307 479.284 170.212 C 477.064 158.872 470.978 148.653 462.062 141.296 C 453.146 133.938 441.952 129.9 430.389 129.867 Z" stroke-linecap="round"/>
</g>
		<g transform="matrix(1 0 0 1 237.1343 -69.0063)" id="Vector_13" clip-path="url(#CLIPPATH_157)">
<clipPath id="CLIPPATH_157">
	<rect transform="matrix(1 0 0 1 -237.1343 69.0063)" id="clip0" x="-278" y="-241.5" rx="0" ry="0" width="556" height="483"/>
</clipPath>
<path style="stroke: none; stroke-width: 1; stroke-dasharray: none; stroke-linecap: butt; stroke-dashoffset: 0; stroke-linejoin: miter; stroke-miterlimit: 4; is-custom-font: none; font-file-url: none; fill: rgb(81,88,98); fill-rule: nonzero; opacity: 1;" transform=" translate(-515.1343, -172.4937)" d="M 500.114 206.215 L 499.846 198.937 C 506.861 198.679 513.487 195.648 518.265 190.509 C 523.043 185.37 525.583 178.545 525.325 171.535 C 525.068 164.524 522.034 157.904 516.892 153.129 C 511.749 148.354 504.919 145.816 497.904 146.073 L 497.637 138.795 C 502.067 138.633 506.486 139.344 510.641 140.888 C 514.796 142.432 518.606 144.778 521.853 147.794 C 525.1 150.809 527.722 154.434 529.567 158.462 C 531.413 162.489 532.446 166.841 532.609 171.268 C 532.771 175.695 532.06 180.11 530.515 184.262 C 528.97 188.414 526.621 192.221 523.604 195.467 C 520.586 198.712 516.959 201.331 512.928 203.175 C 508.898 205.019 504.543 206.052 500.114 206.215 Z" stroke-linecap="round"/>
</g>
		<g transform="matrix(1 0 0 1 248.593 -71.6071)" id="Vector_14" clip-path="url(#CLIPPATH_158)">
<clipPath id="CLIPPATH_158">
	<rect transform="matrix(1 0 0 1 -248.593 71.6071)" id="clip0" x="-278" y="-241.5" rx="0" ry="0" width="556" height="483"/>
</clipPath>
<path style="stroke: none; stroke-width: 1; stroke-dasharray: none; stroke-linecap: butt; stroke-dashoffset: 0; stroke-linejoin: miter; stroke-miterlimit: 4; is-custom-font: none; font-file-url: none; fill: rgb(81,88,98); fill-rule: nonzero; opacity: 1;" transform=" translate(-526.593, -169.8929)" d="M 502.371 225.502 L 502.104 218.224 C 508.564 218.15 514.944 216.784 520.868 214.208 C 526.792 211.631 532.14 207.896 536.597 203.222 C 541.054 198.547 544.529 193.029 546.818 186.992 C 549.107 180.954 550.164 174.52 549.925 168.068 C 549.687 161.616 548.159 155.277 545.431 149.425 C 542.703 143.573 538.83 138.325 534.041 133.992 C 529.251 129.658 523.643 126.327 517.545 124.194 C 511.447 122.06 504.983 121.169 498.535 121.571 L 498.268 114.292 C 512.847 114.042 526.943 119.515 537.528 129.536 C 548.113 139.557 554.343 153.326 554.88 167.887 C 555.418 182.448 550.219 196.639 540.401 207.411 C 530.583 218.184 516.929 224.679 502.371 225.502 Z" stroke-linecap="round"/>
</g>
		<g transform="matrix(1 0 0 1 -41.1224 -85.3872)" id="Vector_15" clip-path="url(#CLIPPATH_159)">
<clipPath id="CLIPPATH_159">
	<rect transform="matrix(1 0 0 1 41.1225 85.3872)" id="clip0" x="-278" y="-241.5" rx="0" ry="0" width="556" height="483"/>
</clipPath>
<path style="stroke: none; stroke-width: 1; stroke-dasharray: none; stroke-linecap: butt; stroke-dashoffset: 0; stroke-linejoin: miter; stroke-miterlimit: 4; is-custom-font: none; font-file-url: none; fill: rgb(235,239,247); fill-rule: nonzero; opacity: 1;" transform=" translate(-236.8775, -156.1128)" d="M 453.161 287.633 C 455.103 297.604 447.553 305.949 439.007 303.257 C 405.601 292.679 334.881 271.936 296.256 272.81 C 224.249 274.459 154.573 293.286 84.4605 306.968 C 64.0675 310.947 43.6988 294.62 38.8433 270.796 L 30.0792 225.623 L 21.2422 180.353 C 16.581 156.53 29.4237 133.676 49.7924 129.698 C 119.905 115.991 191.572 107.257 258.893 81.6864 C 299.971 66.087 348.307 45.587 379.527 8.61416 C 386.107 0.850838 397.905 5.12067 400.066 16.1834 L 453.161 287.633 Z" stroke-linecap="round"/>
</g>
		<g transform="matrix(1 0 0 1 -33.3731 44.3572)" id="Vector_16" clip-path="url(#CLIPPATH_160)">
<clipPath id="CLIPPATH_160">
	<rect transform="matrix(1 0 0 1 33.3731 -44.3572)" id="clip0" x="-278" y="-241.5" rx="0" ry="0" width="556" height="483"/>
</clipPath>
<path style="stroke: none; stroke-width: 1; stroke-dasharray: none; stroke-linecap: butt; stroke-dashoffset: 0; stroke-linejoin: miter; stroke-miterlimit: 4; is-custom-font: none; font-file-url: none; fill: rgb(187,210,230); fill-rule: nonzero; opacity: 1;" transform=" translate(-244.6269, -285.8572)" d="M 448.767 268.733 L 451.777 284.187 C 453.453 292.727 448.136 309.806 439.639 307.695 C 406.719 299.519 334.493 273.925 296.062 275.72 C 224.396 279.116 154.574 297.215 84.4367 310.922 C 74.6087 312.789 64.4405 310.698 56.1496 305.103 C 47.8587 299.508 42.1179 290.865 40.1791 281.057 L 37.1687 265.603 C 39.1075 275.411 44.8484 284.055 53.1392 289.649 C 61.4301 295.244 71.5983 297.335 81.4263 295.468 C 151.564 281.785 221.385 263.687 293.052 260.266 C 331.483 258.471 401.256 274.361 434.201 282.537 C 436.143 283.03 438.179 283.023 440.118 282.518 C 442.057 282.012 443.837 281.025 445.291 279.647 C 446.745 278.269 447.826 276.545 448.434 274.637 C 449.042 272.729 449.156 270.697 448.767 268.733 Z" stroke-linecap="round"/>
</g>
		<g transform="matrix(1 0 0 1 -65.9032 -142.2889)" id="Vector_17" clip-path="url(#CLIPPATH_161)">
<clipPath id="CLIPPATH_161">
	<rect transform="matrix(1 0 0 1 65.9032 142.2889)" id="clip0" x="-278" y="-241.5" rx="0" ry="0" width="556" height="483"/>
</clipPath>
<path style="stroke: none; stroke-width: 1; stroke-dasharray: none; stroke-linecap: butt; stroke-dashoffset: 0; stroke-linejoin: miter; stroke-miterlimit: 4; is-custom-font: none; font-file-url: none; fill: rgb(255,255,255); fill-rule: nonzero; opacity: 1;" transform=" translate(-212.0968, -99.2111)" d="M 401.596 25.6442 L 404.607 41.098 C 404.18 38.9713 403.179 37.0017 401.713 35.4026 C 400.246 33.8035 398.37 32.6358 396.287 32.0261 C 394.204 31.4163 391.993 31.3877 389.895 31.9434 C 387.797 32.4991 385.891 33.6178 384.383 35.1785 C 352.313 67.8087 303.637 86.7561 262.365 101.288 C 194.704 125.063 123.208 134.573 53.0704 148.256 C 43.2631 150.221 34.6308 155.98 29.0552 164.278 C 23.4797 172.576 21.4132 182.741 23.3063 192.556 L 20.2717 177.102 C 18.3786 167.287 20.445 157.123 26.0206 148.824 C 31.5961 140.526 40.2285 134.767 50.0357 132.802 C 120.173 119.119 191.791 109.609 259.355 85.8099 C 300.627 71.2537 351.609 40.2004 383.801 7.57017 C 390.526 0.704484 399.751 16.1826 401.596 25.6442 Z" stroke-linecap="round"/>
</g>
		<g transform="matrix(1 0 0 1 119.4706 -109.4701)" id="Vector_18" clip-path="url(#CLIPPATH_162)">
<clipPath id="CLIPPATH_162">
	<rect transform="matrix(1 0 0 1 -119.4706 109.4702)" id="clip0" x="-278" y="-241.5" rx="0" ry="0" width="556" height="483"/>
</clipPath>
<path style="stroke: none; stroke-width: 1; stroke-dasharray: none; stroke-linecap: butt; stroke-dashoffset: 0; stroke-linejoin: miter; stroke-miterlimit: 4; is-custom-font: none; font-file-url: none; fill: rgb(255,255,255); fill-rule: nonzero; opacity: 1;" transform=" translate(-397.4706, -132.0298)" d="M 393.285 97.2267 L 388.234 98.2133 C 386.918 98.4703 386.06 99.7447 386.317 101.06 L 398.808 164.918 C 399.065 166.233 400.34 167.09 401.656 166.833 L 406.707 165.846 C 408.023 165.589 408.882 164.315 408.624 163 L 396.134 99.1422 C 395.876 97.8273 394.601 96.9696 393.285 97.2267 Z" stroke-linecap="round"/>
</g>
		<g transform="matrix(1 0 0 1 128.1512 -59.9825)" id="Vector_19" clip-path="url(#CLIPPATH_163)">
<clipPath id="CLIPPATH_163">
	<rect transform="matrix(1 0 0 1 -128.1511 59.9825)" id="clip0" x="-278" y="-241.5" rx="0" ry="0" width="556" height="483"/>
</clipPath>
<path style="stroke: none; stroke-width: 1; stroke-dasharray: none; stroke-linecap: butt; stroke-dashoffset: 0; stroke-linejoin: miter; stroke-miterlimit: 4; is-custom-font: none; font-file-url: none; fill: rgb(255,255,255); fill-rule: nonzero; opacity: 1;" transform=" translate(-406.1511, -181.5175)" d="M 407.723 176.131 L 402.679 177.108 C 401.365 177.363 400.507 178.634 400.761 179.947 L 401.739 184.987 C 401.994 186.3 403.266 187.158 404.58 186.904 L 409.623 185.927 C 410.937 185.672 411.796 184.401 411.541 183.088 L 410.563 178.048 C 410.309 176.735 409.037 175.877 407.723 176.131 Z" stroke-linecap="round"/>
</g>
		<g transform="matrix(1 0 0 1 -192.896 -26.6757)" id="Vector_20" clip-path="url(#CLIPPATH_164)">
<clipPath id="CLIPPATH_164">
	<rect transform="matrix(1 0 0 1 192.896 26.6757)" id="clip0" x="-278" y="-241.5" rx="0" ry="0" width="556" height="483"/>
</clipPath>
<path style="stroke: none; stroke-width: 1; stroke-dasharray: none; stroke-linecap: butt; stroke-dashoffset: 0; stroke-linejoin: miter; stroke-miterlimit: 4; is-custom-font: none; font-file-url: none; fill: rgb(222,95,97); fill-rule: nonzero; opacity: 1;" transform=" translate(-85.104, -214.8243)" d="M 59.1394 127.028 C 56.0804 127.586 53.0458 128.169 49.9868 128.775 C 31.8759 132.414 19.8829 151.556 21.0239 173.099 L 20.854 175.185 L 25.7095 199.446 L 31.0748 227.515 L 36.5615 255.536 L 41.7325 282.004 H 42.3395 C 48.4088 299.18 62.4411 311.116 77.5902 312.378 C 80.3328 312.586 83.0909 312.439 85.7959 311.941 C 88.8549 311.335 91.8895 310.752 94.9485 310.122 C 113.059 306.434 131.219 302.504 149.354 298.695 L 113.836 117.179 C 95.604 120.454 77.3231 123.729 59.1394 127.028 Z" stroke-linecap="round"/>
</g>
		<g transform="matrix(1 0 0 1 -209.9506 -94.4695)" id="Vector_21" clip-path="url(#CLIPPATH_165)">
<clipPath id="CLIPPATH_165">
	<rect transform="matrix(1 0 0 1 209.9505 94.4695)" id="clip0" x="-278" y="-241.5" rx="0" ry="0" width="556" height="483"/>
</clipPath>
<path style="stroke: none; stroke-width: 1; stroke-dasharray: none; stroke-linecap: butt; stroke-dashoffset: 0; stroke-linejoin: miter; stroke-miterlimit: 4; is-custom-font: none; font-file-url: none; fill: rgb(238,159,164); fill-rule: nonzero; opacity: 1;" transform=" translate(-68.0495, -147.0305)" d="M 113.667 118.658 L 116.677 134.112 C 94.4389 138.285 72.1037 142.118 49.9628 146.436 C 42.754 147.873 36.1204 151.378 30.8732 156.523 C 25.626 161.667 21.9926 168.228 20.4172 175.403 L 19.4219 170.042 L 19.6646 168.295 C 19.4786 159.48 22.3765 150.876 27.8588 143.967 C 33.341 137.058 41.0639 132.277 49.6957 130.449 H 49.89 L 58.994 128.581 L 71.1326 126.349 L 83.2713 124.117 L 100.144 121.06 C 104.595 120.316 109.102 119.515 113.667 118.658 Z" stroke-linecap="round"/>
</g>
		<g transform="matrix(1 0 0 1 -183.3306 53.0806)" id="Vector_22" clip-path="url(#CLIPPATH_166)">
<clipPath id="CLIPPATH_166">
	<rect transform="matrix(1 0 0 1 183.3306 -53.0806)" id="clip0" x="-278" y="-241.5" rx="0" ry="0" width="556" height="483"/>
</clipPath>
<path style="stroke: none; stroke-width: 1; stroke-dasharray: none; stroke-linecap: butt; stroke-dashoffset: 0; stroke-linejoin: miter; stroke-miterlimit: 4; is-custom-font: none; font-file-url: none; fill: rgb(176,83,92); fill-rule: nonzero; opacity: 1;" transform=" translate(-94.6693, -294.5806)" d="M 144.838 279.966 L 147.849 295.395 C 128.694 299.326 109.515 303.45 90.3358 307.332 L 83.8052 308.642 C 81.2646 309.08 78.686 309.259 76.1093 309.175 C 75.0292 309.14 73.9515 309.051 72.8804 308.908 C 66.0599 308.08 59.5923 305.417 54.1668 301.205 C 48.7413 296.992 44.5613 291.387 42.0724 284.988 H 41.4897 V 284.551 C 42.5951 284.209 43.6742 283.787 44.7186 283.289 C 48.6853 287.247 53.4845 290.271 58.7674 292.143 C 64.0503 294.015 69.6842 294.687 75.2595 294.11 C 76.3277 294.11 77.396 293.843 78.4642 293.649 C 100.532 289.306 122.673 284.551 144.838 279.966 Z" stroke-linecap="round"/>
</g>
		<g transform="matrix(1 0 0 1 -42.385 -84.1703)" id="Vector_23" clip-path="url(#CLIPPATH_167)">
<clipPath id="CLIPPATH_167">
	<rect transform="matrix(1 0 0 1 42.3851 84.1703)" id="clip0" x="-278" y="-241.5" rx="0" ry="0" width="556" height="483"/>
</clipPath>
<path style="stroke: none; stroke-width: 1; stroke-dasharray: none; stroke-linecap: butt; stroke-dashoffset: 0; stroke-linejoin: miter; stroke-miterlimit: 4; is-custom-font: none; font-file-url: none; fill: rgb(81,88,98); fill-rule: nonzero; opacity: 1;" transform=" translate(-235.6149, -157.3297)" d="M 77.2259 314.537 C 57.2699 314.537 38.6978 297.7 34.0608 274.022 L 16.0713 181.954 C 10.9245 155.534 24.9325 130.546 47.3162 126.155 C 63.3878 123.025 79.7993 120.09 95.6767 117.276 C 149.087 107.79 204.221 97.8674 255.786 78.1923 C 300.335 61.21 345.612 40.4674 374.745 5.4111 C 376.421 3.28807 378.68 1.6987 381.245 0.837072 C 383.81 -0.0245593 386.571 -0.121176 389.19 0.55902 C 392.42 1.49875 395.315 3.34027 397.534 5.8672 C 399.753 8.39413 401.204 11.5015 401.717 14.8241 L 455.783 291.393 C 456.472 294.468 456.351 297.669 455.432 300.684 C 454.513 303.699 452.827 306.424 450.539 308.593 C 448.734 310.231 446.524 311.356 444.138 311.85 C 441.751 312.345 439.275 312.192 436.968 311.407 C 407.252 301.703 334.007 279.359 295.212 280.087 C 239.981 281.179 185.163 292.824 132.166 304.105 C 116.385 307.453 100.095 310.922 84.0236 314.052 C 81.7786 314.432 79.5022 314.594 77.2259 314.537 Z M 385.67 7.27915 C 384.641 7.30032 383.631 7.55354 382.715 8.01986 C 381.798 8.48619 380.999 9.15356 380.377 9.97205 C 350.152 46.3626 303.879 67.5662 258.408 85.0094 C 206.187 105 150.665 114.898 96.9634 124.457 C 81.1103 127.271 64.7231 130.182 48.7243 133.312 C 30.2735 136.902 18.8389 158.082 23.2088 180.498 L 41.2226 272.688 C 45.5925 295.104 64.1647 310.413 82.6155 306.798 C 98.6385 303.668 114.904 300.223 130.636 296.875 C 184.046 285.522 239.156 273.804 295.067 272.615 C 333.425 271.814 401.887 292.023 439.201 304.299 C 440.301 304.684 441.485 304.764 442.627 304.529 C 443.769 304.294 444.825 303.753 445.683 302.965 C 447.017 301.638 447.986 299.989 448.496 298.179 C 449.006 296.369 449.041 294.457 448.597 292.63 L 394.531 16.0614 C 394.248 14.0876 393.415 12.2332 392.127 10.7102 C 390.839 9.18718 389.148 8.05705 387.248 7.44897 C 386.73 7.3329 386.2 7.27593 385.67 7.27915 Z" stroke-linecap="round"/>
</g>
		<g transform="matrix(1 0 0 1 -145.2195 -35.173)" id="Vector_24" clip-path="url(#CLIPPATH_168)">
<clipPath id="CLIPPATH_168">
	<rect transform="matrix(1 0 0 1 145.2195 35.173)" id="clip0" x="-278" y="-241.5" rx="0" ry="0" width="556" height="483"/>
</clipPath>
<path style="stroke: none; stroke-width: 1; stroke-dasharray: none; stroke-linecap: butt; stroke-dashoffset: 0; stroke-linejoin: miter; stroke-miterlimit: 4; is-custom-font: none; font-file-url: none; fill: rgb(81,88,98); fill-rule: nonzero; opacity: 1;" transform=" translate(-132.7805, -206.327)" d="M 119.66 118.089 L 112.505 119.451 L 145.902 294.565 L 153.056 293.202 L 119.66 118.089 Z" stroke-linecap="round"/>
</g>
		<g transform="matrix(1 0 0 1 -114.5265 198.9095)" id="Vector_25" clip-path="url(#CLIPPATH_169)">
<clipPath id="CLIPPATH_169">
	<rect transform="matrix(1 0 0 1 114.5265 -198.9095)" id="clip0" x="-278" y="-241.5" rx="0" ry="0" width="556" height="483"/>
</clipPath>
<path style="stroke: none; stroke-width: 1; stroke-dasharray: none; stroke-linecap: butt; stroke-dashoffset: 0; stroke-linejoin: miter; stroke-miterlimit: 4; is-custom-font: none; font-file-url: none; fill: rgb(235,239,247); fill-rule: nonzero; opacity: 1;" transform=" translate(-163.4735, -440.4095)" d="M 204.196 416.412 L 116.705 433.502 C 110.126 434.787 105.835 441.159 107.121 447.734 L 108.509 454.829 C 109.795 461.404 116.171 465.692 122.751 464.407 L 210.241 447.318 C 216.821 446.032 221.112 439.661 219.826 433.086 L 218.438 425.99 C 217.152 419.415 210.776 415.127 204.196 416.412 Z" stroke-linecap="round"/>
</g>
		<g transform="matrix(1 0 0 1 -110.3692 196.3982)" id="Vector_26" clip-path="url(#CLIPPATH_170)">
<clipPath id="CLIPPATH_170">
	<rect transform="matrix(1 0 0 1 110.3692 -196.3981)" id="clip0" x="-278" y="-241.5" rx="0" ry="0" width="556" height="483"/>
</clipPath>
<path style="stroke: none; stroke-width: 1; stroke-dasharray: none; stroke-linecap: butt; stroke-dashoffset: 0; stroke-linejoin: miter; stroke-miterlimit: 4; is-custom-font: none; font-file-url: none; fill: rgb(187,210,230); fill-rule: nonzero; opacity: 1;" transform=" translate(-167.6308, -437.8981)" d="M 217.841 431.399 C 218.626 435.493 217.76 439.731 215.432 443.189 C 213.103 446.647 209.501 449.046 205.411 449.861 L 167.999 457.139 C 169.359 456.411 170.767 455.805 172.102 455.126 C 176.812 452.7 192.956 444.912 188.829 437.537 C 187.106 434.456 182.906 433.728 179.482 434.456 C 165.28 437.513 152.049 443.699 137.458 446.004 C 131.413 446.95 124.251 447.241 120.294 442.583 C 118.643 440.39 117.558 437.823 117.138 435.111 C 117.748 434.903 118.373 434.74 119.008 434.626 L 199.414 418.929 C 203.51 418.16 207.745 419.038 211.196 421.374 C 214.647 423.709 217.035 427.312 217.841 431.399 Z" stroke-linecap="round"/>
</g>
		<g transform="matrix(1 0 0 1 -114.6255 198.925)" id="Vector_27" clip-path="url(#CLIPPATH_171)">
<clipPath id="CLIPPATH_171">
	<rect transform="matrix(1 0 0 1 114.6255 -198.925)" id="clip0" x="-278" y="-241.5" rx="0" ry="0" width="556" height="483"/>
</clipPath>
<path style="stroke: none; stroke-width: 1; stroke-dasharray: none; stroke-linecap: butt; stroke-dashoffset: 0; stroke-linejoin: miter; stroke-miterlimit: 4; is-custom-font: none; font-file-url: none; fill: rgb(81,88,98); fill-rule: nonzero; opacity: 1;" transform=" translate(-163.3745, -440.425)" d="M 120.367 468.227 C 116.709 468.224 113.166 466.952 110.342 464.629 C 107.517 462.307 105.586 459.077 104.878 455.491 L 103.494 448.407 C 102.695 444.302 103.558 440.049 105.892 436.579 C 108.227 433.109 111.843 430.705 115.949 429.896 L 203.347 412.914 C 207.454 412.115 211.711 412.977 215.183 415.31 C 218.656 417.643 221.061 421.257 221.871 425.359 L 223.255 432.443 C 224.054 436.548 223.191 440.801 220.857 444.271 C 218.522 447.741 214.905 450.145 210.8 450.954 L 123.402 467.936 C 122.402 468.131 121.386 468.229 120.367 468.227 Z M 206.479 419.707 C 205.933 419.711 205.388 419.768 204.852 419.876 L 117.454 436.859 C 115.245 437.299 113.3 438.594 112.045 440.463 C 110.789 442.331 110.325 444.62 110.753 446.83 L 112.137 453.914 C 112.317 455.025 112.715 456.09 113.309 457.046 C 113.902 458.003 114.68 458.832 115.597 459.486 C 116.513 460.141 117.551 460.607 118.649 460.858 C 119.747 461.109 120.884 461.14 121.994 460.949 L 209.392 443.967 C 211.601 443.527 213.546 442.232 214.801 440.363 C 216.057 438.495 216.521 436.206 216.093 433.996 L 214.709 426.912 C 214.371 424.963 213.365 423.193 211.863 421.905 C 210.361 420.616 208.458 419.891 206.479 419.852 V 419.707 Z" stroke-linecap="round"/>
</g>
</g>
</g>
</svg>